<svg xmlns="http://www.w3.org/2000/svg" width="88.65mm" height="65.74mm" viewBox="0 0 251.28 186.35"><defs><style>.cls-1,.cls-9{fill:#e6e6e6;}.cls-2,.cls-3,.cls-4,.cls-5,.cls-7{fill:none;}.cls-2,.cls-3,.cls-4,.cls-5,.cls-6,.cls-7,.cls-9{stroke:#000;stroke-linecap:round;stroke-linejoin:round;}.cls-2{stroke-width:0.3px;}.cls-3{stroke-width:0.2px;}.cls-4{stroke-width:0.35px;}.cls-5,.cls-9{stroke-width:0.4px;}.cls-6,.cls-8{fill:#fff;}.cls-6,.cls-7{stroke-width:0.25px;}</style></defs><g id="_5" data-name="5"><path class="cls-1" d="M145.31,192.09a13.59,13.59,0,0,1-4.94-.88L35.91,144.72c-.93-.42-1.08-.95-1.09-1.36V141.6c0-1.57,2.83-2.24,3.15-2.31l89.67-21.65a10,10,0,0,1,2-.21,9.17,9.17,0,0,1,2.42.31l1.8.68-.35-.46a4.76,4.76,0,0,1-.16-4L164.89,9.77c.59-2,2.09-3.43,3.57-3.43a2.42,2.42,0,0,1,.47,0L281.25,31.71A3,3,0,0,1,282,32l2.26,1.37c1.14.8,1.53,2.78,1,4.71L250.12,156a4.58,4.58,0,0,1-4.41,3.53h0a4.75,4.75,0,0,1-1.05-.11l-.12,0a1.05,1.05,0,0,1,.11.59l-.13,3.77a.28.28,0,0,1,0,.13,3.49,3.49,0,0,1-1.73,1.38l-8.65,2.71H234l-.2,0-4,1.25v0a.31.31,0,0,1-.17.13l-23,7.18c-16.37,5.24-58.28,15.15-58.7,15.25A8.86,8.86,0,0,1,145.31,192.09Z" transform="translate(-34.52 -6.04)"/><path d="M168.46,6.64a2,2,0,0,1,.41,0L281.18,32a2.31,2.31,0,0,1,.69.27l2.25,1.37c1,.73,1.35,2.61.83,4.37L249.83,155.89a4.26,4.26,0,0,1-4.12,3.31,4.89,4.89,0,0,1-1-.1l-1-.37-.22-.12a2,2,0,0,0-.49-.28l.49.28c.5.35.95.91.88,1.28l-.13,3.81a3.2,3.2,0,0,1-1.55,1.24l-8.65,2.7-.23,0-4.17,1.3-.07.11-23,7.18c-16.56,5.3-58.69,15.25-58.69,15.25a8.71,8.71,0,0,1-2.55.33,13.52,13.52,0,0,1-4.82-.85L36,144.45c-.82-.37-.9-.79-.91-1.11V141.6c0-1.37,2.91-2,2.91-2l89.68-21.65a9.68,9.68,0,0,1,2-.2,8.89,8.89,0,0,1,2.34.3l2.77,1-.12-.13-.89-1.17a4.45,4.45,0,0,1-.11-3.7L165.17,9.86c.56-1.88,2-3.22,3.29-3.22m0-.6h0c-1.61,0-3.23,1.53-3.86,3.64L133.12,113.9a5.18,5.18,0,0,0,0,3.9l-.89-.33-.05,0a9.85,9.85,0,0,0-2.5-.32,10.39,10.39,0,0,0-2.1.21L37.9,139c-.55.12-3.35.84-3.37,2.59v1.75A1.79,1.79,0,0,0,35.78,145l104.47,46.48a13.82,13.82,0,0,0,5.06.91A9,9,0,0,0,148,192c.38-.09,42.3-10,58.69-15.25l23-7.17a.71.71,0,0,0,.27-.18l3.86-1.2H234a.47.47,0,0,0,.17,0l8.65-2.7a3.71,3.71,0,0,0,1.92-1.54.54.54,0,0,0,.06-.25L245,160a.67.67,0,0,0,0-.2,6.61,6.61,0,0,0,.76.05,4.88,4.88,0,0,0,4.7-3.74L285.53,38.19c.61-2,.16-4.17-1.06-5l-2.29-1.39a2.74,2.74,0,0,0-.87-.35L169,6.1a2.48,2.48,0,0,0-.54-.06Z" transform="translate(-34.52 -6.04)"/><path class="cls-2" d="M141.92,120.44l-6.5-2.36c-1.2-.43-1.73-2.28-1.18-4.1L165.6,10.17c.54-1.81,2-3.06,3.23-2.78L280.72,32.76c1.56.36,2.34,2.33,1.74,4.37L247.65,154c-.64,2.21-2.5,3.66-4,3.11l-9.22-3.34" transform="translate(-34.52 -6.04)"/><path class="cls-3" d="M281.87,32.28a2.61,2.61,0,0,1,.46.34,4.34,4.34,0,0,1,.84,4.38l-35,117.52c-.69,2.35-2.75,3.85-4.48,3.23l-9.55-3.46" transform="translate(-34.52 -6.04)"/><polyline class="cls-4" points="109.35 110.7 201.12 143.22 201.03 143.77 200.25 144.77 199.89 147.74 199.48 148.21 199.46 148.91"/><polyline class="cls-3" points="108.32 113.51 108.59 112.38 109.11 111.3 109.3 110.68"/><path class="cls-5" d="M243.69,158.73l1,.37a4.26,4.26,0,0,0,5.11-3.21L285,38c.52-1.76.21-3.64-.83-4.37l-2.25-1.37a2.31,2.31,0,0,0-.69-.27L168.87,6.68c-1.42-.32-3.08,1.11-3.7,3.18L133.69,114.07a4.45,4.45,0,0,0,.11,3.7l.89,1.17" transform="translate(-34.52 -6.04)"/><polygon class="cls-6" points="109.53 90.51 214.06 125.26 240.88 35.89 133.64 10.15 109.53 90.51"/><line class="cls-3" x1="212.98" y1="148.1" x2="201.03" y2="143.77"/><line class="cls-3" x1="211.64" y1="148.89" x2="200.32" y2="144.79"/><path class="cls-3" d="M247.47,154.21l-1.32.71s-1.4,2.56-2.62,2.16" transform="translate(-34.52 -6.04)"/><line class="cls-3" x1="99.72" y1="107.94" x2="109.11" y2="111.3"/><line class="cls-3" x1="99.72" y1="109.19" x2="108.59" y2="112.38"/><path class="cls-3" d="M134.24,114v1.25s.31,2.5,1.27,2.89" transform="translate(-34.52 -6.04)"/><line class="cls-2" x1="215.08" y1="141.45" x2="101.54" y2="101.91"/><path class="cls-3" d="M221.48,22.64c.13-.44,0-.86-.34-.93s-.68.22-.81.66,0,.86.33.94S221.35,23.08,221.48,22.64Z" transform="translate(-34.52 -6.04)"/><path class="cls-3" d="M216.06,21.38c.05-.15,0-.29-.11-.32s-.23.08-.27.23a.23.23,0,0,0,.11.31A.27.27,0,0,0,216.06,21.38Z" transform="translate(-34.52 -6.04)"/><path class="cls-5" d="M140.42,122l3.71-3.59.62-.47a1.15,1.15,0,0,1,.74,0l89.84,31.95" transform="translate(-34.52 -6.04)"/><line class="cls-3" x1="200.17" y1="144.98" x2="197.04" y2="148.43"/><path class="cls-3" d="M133.58,117a2.91,2.91,0,0,0,1.63,1.55l6.39,2.3" transform="translate(-34.52 -6.04)"/><path class="cls-5" d="M237.46,164.2a.22.22,0,0,1-.11-.2v-.81a.51.51,0,0,1,.36-.44l2.7-.87a.31.31,0,0,1,.21,0" transform="translate(-34.52 -6.04)"/><path class="cls-3" d="M240.62,161.87a.22.22,0,0,1,.15.22v.81a.51.51,0,0,1-.36.44l-2.7.87a.3.3,0,0,1-.25,0" transform="translate(-34.52 -6.04)"/><path class="cls-7" d="M240.09,162v.46a.51.51,0,0,1-.36.44l-2.27.73" transform="translate(-34.52 -6.04)"/><path class="cls-5" d="M218.67,171a.21.21,0,0,1-.12-.21v-2.55a.51.51,0,0,1,.36-.44l5.63-1.72a.33.33,0,0,1,.26,0" transform="translate(-34.52 -6.04)"/><path class="cls-3" d="M224.8,166.08a.23.23,0,0,1,.1.2v2.55a.51.51,0,0,1-.36.44L218.91,171a.32.32,0,0,1-.24,0" transform="translate(-34.52 -6.04)"/><path class="cls-2" d="M224.14,166.22v2.15a.52.52,0,0,1-.36.44l-5.18,1.58" transform="translate(-34.52 -6.04)"/><path class="cls-3" d="M233.84,164.23a.38.38,0,0,1,.19.35v2.95" transform="translate(-34.52 -6.04)"/><path class="cls-2" d="M233.59,164.18a.38.38,0,0,1,.19.35v2.95" transform="translate(-34.52 -6.04)"/><path class="cls-2" d="M229.57,169v-3a.9.9,0,0,1,.64-.78l3.18-1a.53.53,0,0,1,.45,0" transform="translate(-34.52 -6.04)"/><path class="cls-3" d="M214.09,169.55c.63-.2,1.15.11,1.15.68a1.64,1.64,0,0,1-1.15,1.4l-3.73,1.16c-.64.19-1.15-.11-1.15-.68a1.62,1.62,0,0,1,1.15-1.4Z" transform="translate(-34.52 -6.04)"/><path class="cls-5" d="M214,169.93c.33-.1.6.06.6.36a.85.85,0,0,1-.6.73l-3.73,1.16c-.34.11-.61-.05-.61-.36a.85.85,0,0,1,.61-.73Z" transform="translate(-34.52 -6.04)"/><path class="cls-3" d="M205.09,172.35c.63-.2,1.15.11,1.15.68a1.65,1.65,0,0,1-1.15,1.4l-8.4,2.61c-.64.19-1.15-.11-1.15-.69a1.62,1.62,0,0,1,1.15-1.39Z" transform="translate(-34.52 -6.04)"/><path class="cls-5" d="M205,172.69c.34-.11.61.05.61.35a.86.86,0,0,1-.61.74l-8.4,2.61c-.33.1-.6-.06-.6-.36a.85.85,0,0,1,.6-.73Z" transform="translate(-34.52 -6.04)"/><polyline class="cls-2" points="184.07 162.74 188.86 161.28 188.86 160.75 188.48 160.52"/><line class="cls-3" x1="184.08" y1="162.22" x2="188.86" y2="160.76"/><path class="cls-8" d="M232.78,21.86l-1.08-.25a.18.18,0,0,1-.1-.07.17.17,0,0,1,0-.12l.09-.34a.37.37,0,0,1,.35-.28l.8.17a.32.32,0,0,1,.2.16.34.34,0,0,1,0,.28l-.1.35a.15.15,0,0,1-.14.1Z" transform="translate(-34.52 -6.04)"/><path d="M232,21h0l.72.17a.18.18,0,0,1,.13.25l-.1.34-1.09-.25.1-.34A.21.21,0,0,1,232,21m0-.3a.51.51,0,0,0-.49.39l-.1.34a.3.3,0,0,0,.22.38l1.09.24h.07a.28.28,0,0,0,.28-.21l.11-.34a.53.53,0,0,0-.05-.41.46.46,0,0,0-.3-.22l-.72-.17Z" transform="translate(-34.52 -6.04)"/><path class="cls-8" d="M212,17.15l-1.09-.25a.13.13,0,0,1-.09-.07.16.16,0,0,1,0-.12l.09-.34a.38.38,0,0,1,.36-.28l.79.17a.32.32,0,0,1,.2.16.39.39,0,0,1,0,.28l-.11.34a.15.15,0,0,1-.14.11Z" transform="translate(-34.52 -6.04)"/><path d="M211.27,16.24h0l.71.17a.18.18,0,0,1,.13.25l-.1.34L211,16.75l.09-.34a.22.22,0,0,1,.21-.17m0-.3h0a.52.52,0,0,0-.5.39l-.09.34a.29.29,0,0,0,0,.24.3.3,0,0,0,.19.14l1.08.24h.07a.3.3,0,0,0,.29-.21l.1-.34a.53.53,0,0,0-.05-.41.46.46,0,0,0-.3-.22l-.72-.17Z" transform="translate(-34.52 -6.04)"/><path class="cls-3" d="M82,131.88c-1,.24-1.23.67-.54,1l98.39,39.82a5.68,5.68,0,0,0,3.3.07l44.79-13.54c.89-.28.94-.77.12-1.08L129.19,121a5.86,5.86,0,0,0-2.9-.07Z" transform="translate(-34.52 -6.04)"/><path class="cls-7" d="M111.28,170.58a4.93,4.93,0,0,0,2.86,0l29.13-8.1c.86-.25,1-.67.33-.95l-40.25-16.42a5.08,5.08,0,0,0-2.67-.06l-27.74,7.74c-.91.23-1.14.64-.51.91Z" transform="translate(-34.52 -6.04)"/><path class="cls-3" d="M111,170.53a5.83,5.83,0,0,0,3.38.07l29.13-8.11c1-.3,1.19-.8.39-1.13L103.68,145a6,6,0,0,0-3.16-.07l-27.75,7.73c-1.06.28-1.33.77-.6,1.09Z" transform="translate(-34.52 -6.04)"/><path class="cls-3" d="M132,118c-1.36-.47-3.87.23-3.87.23L38.62,139.85s-2.44.69-2.26,1.41c0,.21.19.3.63.53l104.24,45.54a10.15,10.15,0,0,0,6.07.1l93-28.62s2.54-.58,3.84.65" transform="translate(-34.52 -6.04)"/><path class="cls-3" d="M244.19,159.94c-.3.28-1.92-.3-3.44.12l-92.82,28.6a11.57,11.57,0,0,1-6.94-.12L36.06,142.45a1.6,1.6,0,0,1-.83-.66" transform="translate(-34.52 -6.04)"/><path class="cls-5" d="M243,158.33,233.79,155a6.69,6.69,0,0,0-4-.25l-91.41-33.32" transform="translate(-34.52 -6.04)"/><path class="cls-5" d="M141,121.4,132,118a9.6,9.6,0,0,0-4.32-.1L38,139.58s-2.89.65-2.91,2v1.74c0,.32.09.74.91,1.11l104.46,46.49a13,13,0,0,0,7.37.52s42.13-10,58.69-15.25l23-7.18.07-.11,4.17-1.3.23,0,8.65-2.7a3.2,3.2,0,0,0,1.55-1.24l.13-3.81c.09-.5-.75-1.32-1.37-1.56" transform="translate(-34.52 -6.04)"/><line class="cls-3" x1="106.15" y1="115.31" x2="103.97" y2="115.31"/><path class="cls-3" d="M170.93,134.94c-.15,0-.17.12-.05.17a1,1,0,0,0,.52,0c.16,0,.18-.12,0-.18A1.12,1.12,0,0,0,170.93,134.94Z" transform="translate(-34.52 -6.04)"/><path class="cls-3" d="M175.55,137.2c-.19.5.84,1,2.31,1.19s2.8-.11,3-.61-.85-1-2.31-1.19S175.74,136.7,175.55,137.2Z" transform="translate(-34.52 -6.04)"/><path class="cls-3" d="M175.88,137.48c-.15.39.75.78,2,.91s2.33,0,2.49-.42-.73-.83-2-1S176,137.08,175.88,137.48Z" transform="translate(-34.52 -6.04)"/><path class="cls-2" d="M179.48,138.27l.09-.24c.1-.27-.49-.56-1.32-.65s-1.59.05-1.7.32l-.1.26" transform="translate(-34.52 -6.04)"/><path class="cls-3" d="M176.55,137.7c-.1.26.49.56,1.33.65s1.59,0,1.69-.32" transform="translate(-34.52 -6.04)"/><path class="cls-3" d="M177.64,137.82c0,.07.14.15.37.18s.44,0,.47-.09-.14-.16-.37-.18S177.67,137.74,177.64,137.82Z" transform="translate(-34.52 -6.04)"/><path class="cls-9" d="M123.37,122.83c0-.06.08-.12.24-.16l2.68-.66a1.77,1.77,0,0,1,.86,0l5.81,2.15c.08,0,.12.06.13.1v.85c0,.06-.07.12-.24.17l-2.69.67a1.65,1.65,0,0,1-.86,0l-5.81-2.16c-.08,0-.12-.06-.12-.1Z" transform="translate(-34.52 -6.04)"/><path class="cls-9" d="M116.05,124.63c0-.06.09-.11.25-.15l5.19-1.28a1.77,1.77,0,0,1,.86,0l3.09,1.15a.21.21,0,0,1,.12.1v.86c0,.06-.07.12-.24.16l-5.2,1.3a1.69,1.69,0,0,1-.87,0l-3.08-1.16c-.08,0-.12-.07-.12-.11Z" transform="translate(-34.52 -6.04)"/><path class="cls-9" d="M108.19,126.58s.09-.11.25-.15l5.72-1.42a1.65,1.65,0,0,1,.86,0l6.66,2.52c.1,0,.14.09.12.13v.86c0,.05-.1.1-.24.14l-5.74,1.44a1.68,1.68,0,0,1-.87,0l-6.64-2.55c-.09,0-.12-.07-.12-.11Z" transform="translate(-34.52 -6.04)"/><path class="cls-9" d="M130.8,125.6c0-.06.07-.13.24-.17l2.7-.67a1.78,1.78,0,0,1,.86,0l5.93,2.19c.1,0,.14.08.13.12v.86s-.09.11-.23.14l-2.71.69a1.69,1.69,0,0,1-.87,0l-5.92-2.2c-.08,0-.12-.06-.13-.1Z" transform="translate(-34.52 -6.04)"/><path class="cls-9" d="M120.74,126.41s.08-.12.25-.16l5.2-1.3a1.65,1.65,0,0,1,.86,0l4.69,1.74c.1,0,.14.09.12.14v.86a.36.36,0,0,1-.23.12l-5.23,1.32a1.82,1.82,0,0,1-.87,0l-4.66-1.77c-.08,0-.12-.06-.13-.1Z" transform="translate(-34.52 -6.04)"/><path class="cls-9" d="M127,128.8c0-.06.07-.12.25-.17l5.22-1.32a1.69,1.69,0,0,1,.87,0l4.76,1.77c.1,0,.14.08.13.13v.86s-.09.1-.23.14l-5.24,1.34a1.7,1.7,0,0,1-.9,0l-4.75-1.79c-.06,0-.1-.06-.11-.09Z" transform="translate(-34.52 -6.04)"/><path class="cls-9" d="M109.9,132.35c0-.06.07-.13.25-.17l5.82-1.47a1.73,1.73,0,0,1,.88,0l4.67,1.79c.1,0,.14.1.12.15v.85a.43.43,0,0,1-.25.14l-5.84,1.48a1.63,1.63,0,0,1-.88,0L110,133.31c-.08,0-.12-.07-.12-.1Z" transform="translate(-34.52 -6.04)"/><path class="cls-9" d="M116.45,129.77c0-.06.07-.13.24-.17l5.75-1.45a1.69,1.69,0,0,1,.87,0l4.67,1.77c.1,0,.14.09.12.13v.86s-.1.1-.24.14l-5.76,1.46a1.73,1.73,0,0,1-.88,0l-4.65-1.79c-.08,0-.12-.06-.12-.1Z" transform="translate(-34.52 -6.04)"/><path class="cls-9" d="M138.38,128.41c0-.06.07-.12.24-.16l2.71-.69a1.7,1.7,0,0,1,.87,0l6.05,2.23c.1,0,.14.08.13.13v.86s-.09.1-.23.13l-2.72.71a1.73,1.73,0,0,1-.88,0l-6-2.25c-.08,0-.12-.06-.13-.1Z" transform="translate(-34.52 -6.04)"/><path class="cls-9" d="M133.46,131.23c0-.07.06-.14.24-.18l5.24-1.34a1.86,1.86,0,0,1,.88,0l4.84,1.81c.1,0,.15.09.13.14v.86c0,.05-.1.09-.24.13L139.3,134a1.77,1.77,0,0,1-.89,0l-4.82-1.82c-.08,0-.12-.06-.13-.1Z" transform="translate(-34.52 -6.04)"/><path class="cls-9" d="M122.74,132.19c0-.06.07-.13.25-.17l5.77-1.47a1.69,1.69,0,0,1,.87,0l4.75,1.79c.1,0,.14.09.13.14v.85c0,.06-.1.11-.24.15L128.49,135a1.67,1.67,0,0,1-.89,0l-4.73-1.82a.21.21,0,0,1-.13-.1Z" transform="translate(-34.52 -6.04)"/><path class="cls-9" d="M116.19,134.81c0-.06.08-.13.25-.17l5.84-1.5a1.77,1.77,0,0,1,.89,0l4.75,1.83c.09,0,.13.08.12.13V136c0,.05-.09.11-.24.15l-5.86,1.51a1.81,1.81,0,0,1-.9,0l-4.73-1.85a.21.21,0,0,1-.12-.1Z" transform="translate(-34.52 -6.04)"/><path class="cls-9" d="M122.59,137.31c0-.06.08-.13.25-.17l5.86-1.52a1.81,1.81,0,0,1,.9,0l4.82,1.86c.11,0,.15.09.13.14v.86c0,.05-.1.1-.24.14l-5.88,1.54a1.81,1.81,0,0,1-.9,0l-4.81-1.88c-.08,0-.12-.07-.13-.11Z" transform="translate(-34.52 -6.04)"/><path class="cls-9" d="M129.15,134.64c0-.06.07-.12.24-.16l5.79-1.5a1.73,1.73,0,0,1,.88,0l4.83,1.83c.09,0,.14.08.14.12v.86c0,.06-.09.12-.25.16l-5.8,1.51a1.77,1.77,0,0,1-.89,0l-4.81-1.85c-.09,0-.13-.07-.13-.11Z" transform="translate(-34.52 -6.04)"/><path class="cls-9" d="M84,132.58c0-.06.09-.12.27-.17l5.93-1.47a1.68,1.68,0,0,1,.87,0l7.82,3.12q.12,0,.12.12v.85c0,.06-.1.12-.26.17l-6,1.5a1.72,1.72,0,0,1-.88,0l-7.78-3.16c-.08,0-.11-.06-.12-.1Z" transform="translate(-34.52 -6.04)"/><path class="cls-9" d="M100.23,128.57c0-.06.08-.13.25-.17l5.79-1.44a1.8,1.8,0,0,1,.87,0l8.08,3.12c.1,0,.13.08.12.13v.85s-.1.11-.25.15l-5.82,1.46a1.69,1.69,0,0,1-.87,0l-8.06-3.15c-.07,0-.11-.06-.11-.1Z" transform="translate(-34.52 -6.04)"/><path class="cls-9" d="M92.17,130.56c0-.06.09-.12.26-.17l5.86-1.45a1.68,1.68,0,0,1,.87,0l11.21,4.4c.08,0,.12.06.12.1v.86c0,.06-.08.12-.25.17L104.33,136a1.63,1.63,0,0,1-.88,0l-11.17-4.45c-.07,0-.11-.07-.11-.1Z" transform="translate(-34.52 -6.04)"/><path class="cls-9" d="M93.39,136.39q0-.1.27-.18l6-1.5a1.63,1.63,0,0,1,.88,0l8,3.21c.09,0,.13.08.12.12v.86c0,.06-.09.12-.26.16l-6,1.54a1.8,1.8,0,0,1-.9,0l-8-3.24a.19.19,0,0,1-.12-.11Z" transform="translate(-34.52 -6.04)"/><path class="cls-9" d="M105,135.66c0-.07.07-.14.25-.18l5.91-1.5a1.73,1.73,0,0,1,.88,0l4.69,1.84c.1,0,.14.09.12.14v.86a.38.38,0,0,1-.25.13l-5.92,1.52a1.69,1.69,0,0,1-.9,0l-4.67-1.86c-.07,0-.11-.06-.11-.09Z" transform="translate(-34.52 -6.04)"/><path class="cls-9" d="M111.27,138.17c0-.07.08-.13.26-.18l5.93-1.52a1.66,1.66,0,0,1,.89,0l4.76,1.87c.08,0,.13.07.13.1v.86c0,.07-.07.13-.25.18L117.05,141a1.64,1.64,0,0,1-.91,0l-4.74-1.89c-.08,0-.12-.07-.13-.11Z" transform="translate(-34.52 -6.04)"/><path class="cls-9" d="M103,140.29q0-.1.27-.18l6-1.54a1.57,1.57,0,0,1,.89,0l4.75,1.89c.09,0,.13.08.12.13v.86c0,.06-.09.12-.25.16l-6,1.56a1.63,1.63,0,0,1-.91,0l-4.73-1.92c-.07,0-.11-.06-.12-.1Z" transform="translate(-34.52 -6.04)"/><path class="cls-9" d="M146.11,131.29c0-.06.07-.13.24-.17l2.71-.7a1.74,1.74,0,0,1,.88,0l6.17,2.28c.11,0,.15.09.14.13v.86c0,.05-.09.11-.23.14l-2.72.72a1.77,1.77,0,0,1-.89,0l-6.16-2.29a.24.24,0,0,1-.14-.1Z" transform="translate(-34.52 -6.04)"/><path class="cls-9" d="M140,133.66s.09-.11.24-.15l5.26-1.36a1.78,1.78,0,0,1,.89,0l4.92,1.84c.11,0,.15.09.13.14V135c0,.05-.09.1-.23.13l-5.27,1.39a1.81,1.81,0,0,1-.9,0l-4.9-1.86c-.1,0-.14-.08-.14-.12Z" transform="translate(-34.52 -6.04)"/><path class="cls-9" d="M154,134.21c0-.06.07-.12.23-.16l2.73-.72a1.77,1.77,0,0,1,.89,0l6.29,2.32c.11,0,.15.09.14.14v.86c0,.05-.08.1-.23.14l-2.73.73a1.81,1.81,0,0,1-.9,0l-6.28-2.34c-.1,0-.14-.08-.14-.12Z" transform="translate(-34.52 -6.04)"/><path class="cls-9" d="M146.6,136.17c0-.06.08-.12.24-.16l5.28-1.38a1.67,1.67,0,0,1,.89,0l5,1.87c.1,0,.15.08.15.13v.85c0,.06-.08.12-.24.16l-5.29,1.4a1.61,1.61,0,0,1-.9,0l-5-1.88c-.09,0-.14-.08-.14-.12Z" transform="translate(-34.52 -6.04)"/><path class="cls-9" d="M153.34,138.73c0-.06.07-.13.24-.18l5.29-1.4a1.61,1.61,0,0,1,.9,0l5.1,1.89c.1,0,.15.1.14.15v.85c0,.06-.09.11-.23.15l-5.31,1.43a1.86,1.86,0,0,1-.91,0l-5.08-1.92c-.08,0-.13-.07-.14-.11Z" transform="translate(-34.52 -6.04)"/><path class="cls-9" d="M162,137.21c0-.06.06-.13.23-.17l2.74-.73a1.71,1.71,0,0,1,.9,0l6.42,2.37c.11,0,.15.09.15.14v.85c0,.06-.08.12-.23.16l-2.74.74a1.74,1.74,0,0,1-.91,0l-6.42-2.38c-.08,0-.13-.07-.14-.11Z" transform="translate(-34.52 -6.04)"/><path class="cls-9" d="M160.2,141.31c0-.06.07-.12.24-.17l5.3-1.43a1.85,1.85,0,0,1,.91,0l5.18,1.93c.11,0,.16.09.15.14v.86c0,.06-.08.11-.23.15l-5.32,1.45a1.68,1.68,0,0,1-.92,0l-5.17-2c-.09,0-.14-.08-.14-.12Z" transform="translate(-34.52 -6.04)"/><path class="cls-9" d="M117.7,140.73c0-.07.08-.14.26-.18L123.9,139a1.7,1.7,0,0,1,.9,0l4.85,1.9c.09,0,.13.08.13.12v.86c0,.06-.08.12-.25.17l-6,1.57a1.84,1.84,0,0,1-.91,0l-4.83-1.93c-.08,0-.13-.07-.13-.11Z" transform="translate(-34.52 -6.04)"/><path class="cls-9" d="M129.1,139.85c0-.06.08-.13.25-.17l5.88-1.54a1.81,1.81,0,0,1,.9,0l4.91,1.89c.11,0,.15.09.14.14v.86s-.1.11-.25.15l-5.9,1.56a1.85,1.85,0,0,1-.91,0l-4.89-1.92c-.08,0-.13-.07-.13-.11Z" transform="translate(-34.52 -6.04)"/><path class="cls-9" d="M124.24,143.33c0-.06.07-.13.25-.18l6-1.58a1.85,1.85,0,0,1,.91,0l4.93,1.94c.1,0,.14.09.14.14v.85c0,.06-.1.12-.25.16l-6,1.6a1.77,1.77,0,0,1-.92,0l-4.91-1.95c-.08,0-.12-.07-.13-.11Z" transform="translate(-34.52 -6.04)"/><path class="cls-9" d="M135.66,137.15c0-.06.07-.13.24-.17l5.81-1.52a1.77,1.77,0,0,1,.89,0l4.91,1.86c.11,0,.15.09.14.14v.85c0,.06-.1.11-.24.15L141.59,140a1.85,1.85,0,0,1-.91,0l-4.89-1.88c-.08,0-.12-.07-.13-.11Z" transform="translate(-34.52 -6.04)"/><path class="cls-9" d="M109.42,142.88c0-.06.08-.13.26-.18l6-1.57a1.84,1.84,0,0,1,.91,0l25,10c.11,0,.15.1.14.15v.86c0,.06-.1.12-.25.16L135.43,154a1.75,1.75,0,0,1-.94,0l-25-10.12c-.08,0-.12-.07-.12-.11Z" transform="translate(-34.52 -6.04)"/><path class="cls-9" d="M142.28,139.69c0-.06.08-.13.24-.17l5.83-1.54a1.7,1.7,0,0,1,.9,0l5,1.89c.12,0,.16.1.14.15v.85c0,.06-.09.11-.23.14l-5.84,1.57a1.89,1.89,0,0,1-.92,0l-5-1.92c-.09,0-.14-.07-.14-.12Z" transform="translate(-34.52 -6.04)"/><path class="cls-9" d="M135.72,142.45c0-.07.07-.14.25-.18l5.9-1.57a1.85,1.85,0,0,1,.91,0l5,1.93c.1,0,.15.09.14.14v.85c0,.06-.1.12-.25.16l-5.92,1.58a1.68,1.68,0,0,1-.92,0l-5-1.94c-.09,0-.13-.07-.14-.11Z" transform="translate(-34.52 -6.04)"/><path class="cls-9" d="M130.89,146c0-.07.07-.14.25-.19l6-1.6a1.89,1.89,0,0,1,.92,0l5,2c.1,0,.15.09.15.13v.88q0,.09-.24.15L137,149a1.71,1.71,0,0,1-.93,0l-5-2c-.08,0-.13-.07-.13-.11Z" transform="translate(-34.52 -6.04)"/><path class="cls-9" d="M137.65,148.66c0-.06.09-.13.26-.18l6-1.62a1.68,1.68,0,0,1,.92,0l5.11,2c.11.05.15.1.14.15v.86c0,.06-.1.11-.25.15l-6,1.65a1.75,1.75,0,0,1-.94,0l-5.09-2a.19.19,0,0,1-.14-.12Z" transform="translate(-34.52 -6.04)"/><path class="cls-9" d="M142.46,145.07c0-.06.08-.13.25-.17l5.92-1.59a1.64,1.64,0,0,1,.91,0l5.09,2c.11,0,.15.09.14.15v.85q0,.09-.24.15l-5.94,1.62a1.93,1.93,0,0,1-.93,0l-5.06-2c-.1,0-.14-.08-.14-.12Z" transform="translate(-34.52 -6.04)"/><path class="cls-9" d="M149,142.29c0-.07.06-.14.24-.18l5.84-1.57a1.74,1.74,0,0,1,.91,0l5.08,1.92q.16.08.15.15v.86s-.1.1-.24.14l-5.86,1.59a1.68,1.68,0,0,1-.92,0l-5.06-1.95c-.09,0-.13-.07-.14-.11Z" transform="translate(-34.52 -6.04)"/><path class="cls-9" d="M144.54,151.42c0-.07.07-.15.25-.2l6-1.65a1.75,1.75,0,0,1,.94,0l5.19,2c.12.05.17.1.15.16v.86s-.1.11-.25.15l-6,1.67a1.79,1.79,0,0,1-.95,0l-5.18-2.06a.22.22,0,0,1-.14-.12Z" transform="translate(-34.52 -6.04)"/><path class="cls-9" d="M155.87,144.9c0-.06.09-.12.24-.16l5.86-1.59a1.68,1.68,0,0,1,.92,0l5.17,2c.11,0,.16.1.15.16v.85q0,.09-.24.15l-5.87,1.61a1.71,1.71,0,0,1-.93,0l-5.16-2c-.1,0-.15-.09-.14-.14Z" transform="translate(-34.52 -6.04)"/><path class="cls-9" d="M149.31,147.75c0-.06.09-.13.25-.17L155.5,146a1.72,1.72,0,0,1,.93,0l5.17,2c.11.05.16.1.14.16V149s-.1.1-.24.14l-6,1.64a1.72,1.72,0,0,1-.93,0l-5.16-2c-.09,0-.14-.09-.14-.13Z" transform="translate(-34.52 -6.04)"/><path class="cls-9" d="M136.14,153.7c0-.06.09-.13.26-.18l6.11-1.67a1.75,1.75,0,0,1,.94,0l5.17,2.07q.16.06.15.15v.85c0,.07-.1.13-.25.17l-6.13,1.7a1.79,1.79,0,0,1-.95,0l-5.16-2.1c-.08,0-.13-.07-.14-.11Z" transform="translate(-34.52 -6.04)"/><path class="cls-9" d="M170.25,140.26c0-.06.06-.13.23-.18l2.75-.74a1.86,1.86,0,0,1,.91,0l6.55,2.42c.11,0,.16.09.16.14v.86c0,.05-.09.11-.23.15l-2.76.75a1.68,1.68,0,0,1-.92,0l-6.54-2.43c-.09,0-.14-.07-.15-.11Z" transform="translate(-34.52 -6.04)"/><path class="cls-9" d="M178.63,143.37c0-.06.06-.13.23-.17l2.75-.76a1.68,1.68,0,0,1,.92,0l6.69,2.47c.11,0,.17.09.16.14v.87c0,.06-.08.11-.22.15l-2.77.77a1.72,1.72,0,0,1-.93,0l-6.68-2.48c-.09,0-.15-.08-.15-.12Z" transform="translate(-34.52 -6.04)"/><path class="cls-9" d="M149.31,147.75h0m-6.1-1.44v0m-7.06,7.39v0" transform="translate(-34.52 -6.04)"/><path class="cls-9" d="M156.29,150.49c0-.06.06-.14.24-.19l6-1.64a1.76,1.76,0,0,1,.94,0l5.26,2c.11,0,.16.1.15.15v.86c0,.05-.09.11-.24.15l-6,1.67a1.75,1.75,0,0,1-.94,0l-5.25-2.05c-.08,0-.13-.08-.14-.12Z" transform="translate(-34.52 -6.04)"/><path class="cls-9" d="M151.55,154.21c0-.07.07-.15.25-.2l6-1.68a1.75,1.75,0,0,1,.94,0l5.29,2.08c.12,0,.17.1.15.16v.85c0,.06-.09.12-.24.16l-6.07,1.7a1.61,1.61,0,0,1-.95,0l-5.27-2.1c-.09,0-.14-.07-.15-.11Z" transform="translate(-34.52 -6.04)"/><path class="cls-9" d="M143.12,156.55c0-.07.08-.15.26-.2l6.13-1.7a1.79,1.79,0,0,1,1,0l5.27,2.1c.11,0,.16.11.14.17v.86s-.1.11-.24.15l-6.15,1.73a1.82,1.82,0,0,1-1,0l-5.25-2.13q-.14-.06-.15-.12Z" transform="translate(-34.52 -6.04)"/><path class="cls-9" d="M167.18,143.94c0-.06.07-.12.23-.16l5.33-1.46a1.86,1.86,0,0,1,.91,0l5.28,2c.1,0,.15.09.15.14v.85c0,.06-.08.12-.23.16l-5.34,1.48a1.81,1.81,0,0,1-.93,0l-5.25-2c-.1,0-.15-.08-.15-.13Z" transform="translate(-34.52 -6.04)"/><path class="cls-9" d="M162.84,147.6c0-.07.07-.14.24-.19L169,145.8a1.72,1.72,0,0,1,.93,0l5.26,2c.12,0,.17.1.15.16v.85c0,.06-.09.11-.23.15l-5.9,1.64a1.76,1.76,0,0,1-.94,0l-5.24-2a.23.23,0,0,1-.15-.11Z" transform="translate(-34.52 -6.04)"/><path class="cls-9" d="M187.18,146.54c0-.06.07-.12.23-.17l2.76-.77a1.72,1.72,0,0,1,.93,0l6.83,2.52c.12.05.18.1.17.15v.87c0,.06-.09.11-.23.15l-2.77.79a1.76,1.76,0,0,1-.94,0l-6.82-2.54c-.11,0-.16-.09-.16-.14Z" transform="translate(-34.52 -6.04)"/><path class="cls-9" d="M174.28,146.64c0-.07.05-.14.23-.18l5.34-1.48a1.72,1.72,0,0,1,.93,0l5.36,2c.12,0,.17.1.16.15V148c0,.05-.09.11-.23.15l-5.35,1.5a1.86,1.86,0,0,1-.94,0l-5.35-2c-.09,0-.14-.07-.15-.11Z" transform="translate(-34.52 -6.04)"/><path class="cls-9" d="M169.94,150.33c0-.07.06-.14.24-.19l5.9-1.65a1.82,1.82,0,0,1,.93,0l5.35,2c.12.05.17.11.16.16v.86c0,.05-.09.11-.23.15l-5.92,1.67a1.66,1.66,0,0,1-.94,0l-5.34-2c-.09,0-.14-.07-.15-.11Z" transform="translate(-34.52 -6.04)"/><path class="cls-9" d="M163.39,153.27c0-.07.06-.14.24-.19l6-1.68a1.85,1.85,0,0,1,.94,0l5.36,2.06c.12,0,.17.11.15.16v.86c0,.06-.09.11-.23.15l-6,1.7a1.79,1.79,0,0,1-1,0l-5.34-2.09q-.14-.06-.15-.12Z" transform="translate(-34.52 -6.04)"/><path class="cls-9" d="M181.5,149.35c0-.06.07-.12.23-.17l5.36-1.5a1.76,1.76,0,0,1,.94,0l5.45,2c.13,0,.18.1.17.15v.86c0,.06-.09.11-.23.15l-5.37,1.52a1.79,1.79,0,0,1-1,0l-5.44-2.06c-.1,0-.16-.08-.16-.13Z" transform="translate(-34.52 -6.04)"/><path class="cls-9" d="M158.69,157c0-.07.07-.14.24-.19l6.07-1.71a1.83,1.83,0,0,1,1,0l5.38,2.12c.12,0,.17.1.16.16v.86q0,.09-.24.15l-6.09,1.74a1.76,1.76,0,0,1-1,0L158.84,158c-.1,0-.15-.09-.15-.13Z" transform="translate(-34.52 -6.04)"/><path class="cls-9" d="M150.23,159.43c0-.07.07-.15.25-.2l6.16-1.73a1.79,1.79,0,0,1,1,0l5.37,2.14c.12.05.17.11.15.17v.86c0,.06-.1.11-.25.15l-6.16,1.76a1.67,1.67,0,0,1-1,0l-5.35-2.17q-.13-.06-.15-.12Z" transform="translate(-34.52 -6.04)"/><path class="cls-9" d="M177.16,153.08c0-.06.08-.12.24-.17l5.91-1.67a1.79,1.79,0,0,1,.95,0l5.45,2.06c.11.05.16.1.16.15v.86c0,.06-.08.12-.23.17l-5.93,1.69a1.83,1.83,0,0,1-1,0l-5.43-2.09c-.11,0-.16-.09-.16-.14Z" transform="translate(-34.52 -6.04)"/><path class="cls-9" d="M170.61,156.08q0-.11.24-.18l6-1.7a1.79,1.79,0,0,1,1,0l5.46,2.1c.12.05.17.11.16.17v.85c0,.06-.1.12-.24.16l-6,1.73a1.77,1.77,0,0,1-1,0l-5.43-2.12c-.11,0-.16-.09-.16-.14Z" transform="translate(-34.52 -6.04)"/><path class="cls-9" d="M157.47,162.36c0-.07.07-.15.25-.2l2.32-.66a1.67,1.67,0,0,1,1,0l6.1,2.46c.13.05.18.11.16.17V165c0,.07-.1.12-.25.17l-2.33.67a1.71,1.71,0,0,1-1,0l-6.09-2.47c-.09,0-.14-.09-.15-.13Z" transform="translate(-34.52 -6.04)"/><path class="cls-9" d="M166,159.93c0-.07.07-.14.25-.19l6.09-1.74a1.83,1.83,0,0,1,1,0l5.48,2.15c.12.05.17.1.17.16v.85c0,.07-.09.13-.25.18l-6.1,1.76c-.29.09-.73.08-.76-.08l-5.46-2.18c-.32,0-.37,0-.38-.07Z" transform="translate(-34.52 -6.04)"/><path class="cls-9" d="M178,159c0-.08.06-.15.24-.2l6-1.73a1.65,1.65,0,0,1,1,0l5.55,2.14c.12,0,.18.11.17.16v.86c0,.06-.1.12-.24.16l-6,1.76a1.8,1.8,0,0,1-1,0L178.13,160a.27.27,0,0,1-.16-.13Z" transform="translate(-34.52 -6.04)"/><path class="cls-9" d="M184.52,155.93c0-.07,0-.14.23-.2l5.93-1.7a1.73,1.73,0,0,1,1,0l5.54,2.1c.13,0,.18.1.17.16v.86c0,.06-.09.11-.23.15l-6,1.73a1.87,1.87,0,0,1-1,0l-5.53-2.13q-.13-.06-.15-.12Z" transform="translate(-34.52 -6.04)"/><path class="cls-9" d="M195.92,149.81c0-.07,0-.14.22-.19l2.77-.79a1.76,1.76,0,0,1,.94,0l7,2.57c.12.05.18.11.17.16v.86c0,.06-.08.11-.22.15l-2.78.8a1.83,1.83,0,0,1-1,0l-7-2.59c-.1,0-.15-.07-.16-.12Z" transform="translate(-34.52 -6.04)"/><path class="cls-9" d="M188.85,152.13c0-.06.08-.13.23-.17l5.38-1.53a1.76,1.76,0,0,1,.94,0l5.56,2.07c.12,0,.18.11.17.16v.86c0,.06-.09.11-.23.15l-5.38,1.55a1.83,1.83,0,0,1-1,0L189,153.13c-.11,0-.16-.09-.17-.14Z" transform="translate(-34.52 -6.04)"/><path class="cls-9" d="M196.34,155c0-.07,0-.15.23-.2l5.39-1.55a1.8,1.8,0,0,1,.95,0l5.66,2.11c.12,0,.18.11.17.16v.86c0,.06-.08.11-.22.15l-5.4,1.58a1.87,1.87,0,0,1-1,0L196.51,156a.31.31,0,0,1-.17-.12Z" transform="translate(-34.52 -6.04)"/><path class="cls-9" d="M204.83,153.12c0-.07,0-.14.22-.19l2.79-.8a1.8,1.8,0,0,1,.95,0l7.13,2.63c.12,0,.18.1.17.16v.86s-.08.11-.22.15l-2.79.82a1.83,1.83,0,0,1-1,0L205,154.1a.3.3,0,0,1-.17-.12Z" transform="translate(-34.52 -6.04)"/><path class="cls-9" d="M204,157.83c0-.06.08-.12.23-.17l5.4-1.58a1.87,1.87,0,0,1,1,0l3.84,1.43c.13.05.19.11.18.17v.86c0,.06-.08.11-.22.15l-5.41,1.6a1.81,1.81,0,0,1-1,0l-3.83-1.45c-.12,0-.18-.1-.18-.15Z" transform="translate(-34.52 -6.04)"/><path class="cls-9" d="M192,158.8c0-.07.06-.14.23-.19l6-1.73a1.87,1.87,0,0,1,1,0l5.64,2.14c.12.05.18.1.18.16v.86c0,.06-.08.12-.23.16l-6,1.76a1.77,1.77,0,0,1-1,0l-5.64-2.16c-.1,0-.15-.09-.16-.14Z" transform="translate(-34.52 -6.04)"/><path class="cls-9" d="M185.46,161.89c0-.07.08-.14.24-.19l6-1.76a1.8,1.8,0,0,1,1,0l5.65,2.17c.12.05.18.11.17.17v.85c0,.07-.08.13-.23.17l-6.05,1.79a1.84,1.84,0,0,1-1,0l-5.63-2.2c-.11,0-.17-.1-.17-.15Z" transform="translate(-34.52 -6.04)"/><path class="cls-9" d="M173.35,162.87c0-.07.08-.14.25-.19l6.1-1.77a1.8,1.8,0,0,1,1,0l5.58,2.19c.12,0,.17.1.17.16v.86c0,.06-.09.12-.24.17l-6.13,1.79a1.71,1.71,0,0,1-1,0l-5.57-2.22c-.1,0-.16-.09-.16-.14Z" transform="translate(-34.52 -6.04)"/><path class="cls-9" d="M169.36,164.49c0-.07.07-.15.25-.21l2.32-.67a1.8,1.8,0,0,1,1,0l6.23,2.48c.12,0,.17.11.17.17v.85c0,.07-.09.13-.25.18l-2.32.68a1.74,1.74,0,0,1-1,0l-6.23-2.5a.32.32,0,0,1-.16-.13Z" transform="translate(-34.52 -6.04)"/><path class="cls-9" d="M165.49,165.61c0-.07.06-.15.25-.2l2.33-.68a1.8,1.8,0,0,1,1,0l6.22,2.5c.12.05.18.11.16.17v.86c0,.06-.09.12-.24.17l-2.34.69a1.83,1.83,0,0,1-1,0l-6.22-2.52c-.09,0-.14-.08-.15-.13Z" transform="translate(-34.52 -6.04)"/><path class="cls-9" d="M173.67,168.93c0-.07.06-.16.24-.21l2.34-.69a1.78,1.78,0,0,1,1,0l6.35,2.55c.11,0,.17.11.17.17v.85c0,.07-.09.14-.25.19l-2.35.7a1.78,1.78,0,0,1-1,0l-6.34-2.57c-.1,0-.15-.08-.16-.13Z" transform="translate(-34.52 -6.04)"/><path class="cls-9" d="M213.94,156.49c0-.06.06-.13.22-.18l2.79-.82a1.87,1.87,0,0,1,1,0l7.28,2.69c.12.05.18.1.18.16v.86c0,.06-.07.12-.22.16l-2.8.84a1.78,1.78,0,0,1-1,0l-7.27-2.7c-.11,0-.17-.09-.18-.14Z" transform="translate(-34.52 -6.04)"/><path class="cls-9" d="M209.81,160c0-.07.07-.13.22-.17l5.42-1.61a1.77,1.77,0,0,1,1,0l3.77,1.4c.12.05.18.1.19.16v.86c0,.06-.07.12-.22.17l-5.43,1.62a1.81,1.81,0,0,1-1,0L210,161.05c-.12-.05-.17-.1-.17-.16Z" transform="translate(-34.52 -6.04)"/><path class="cls-9" d="M199.79,162.72c-.12,0-.18-.1-.17-.16v-.86c0-.06.08-.12.23-.16l6-1.76a1.68,1.68,0,0,1,1,0l5.75,2.18c.13.05.19.11.18.17V163c0,.06-.08.12-.22.16l-14.32,4.28a1.84,1.84,0,0,1-1,0l-3.93-1.53c-.11,0-.17-.1-.17-.15v-.86c0-.07.07-.14.24-.19l7.41-2.23s.13,0,.15-.08" transform="translate(-34.52 -6.04)"/><path class="cls-3" d="M212.72,162.15c0,.06-.08.12-.22.16l-14.32,4.27a1.75,1.75,0,0,1-1,0L193.26,165c-.11,0-.17-.1-.17-.15" transform="translate(-34.52 -6.04)"/><path class="cls-3" d="M199.62,161.7c0,.06,0,.12.17.16l1,.4s.08,0,.08.09" transform="translate(-34.52 -6.04)"/><path class="cls-9" d="M180.88,165.87c0-.07.08-.14.25-.19l6.13-1.8a1.8,1.8,0,0,1,1,0l7.71,3c.12,0,.18.1.17.16V168c0,.06-.08.13-.24.17L189.73,170a1.75,1.75,0,0,1-1,0l-7.69-3.07c-.11,0-.16-.09-.17-.15Z" transform="translate(-34.52 -6.04)"/><path class="cls-3" d="M225.38,158.36c0,.06-.07.12-.22.16l-2.8.84a1.88,1.88,0,0,1-1,0l-7.27-2.71c-.11,0-.17-.09-.18-.14" transform="translate(-34.52 -6.04)"/><path class="cls-3" d="M220.38,159.85c0,.06-.07.13-.22.17l-5.43,1.62a1.91,1.91,0,0,1-1,0L210,160.19c-.12,0-.17-.1-.17-.15" transform="translate(-34.52 -6.04)"/><path class="cls-3" d="M214.58,157.7c0,.06-.08.12-.22.16l-5.41,1.6a1.81,1.81,0,0,1-1,0L204.14,158q-.18-.06-.18-.15" transform="translate(-34.52 -6.04)"/><path class="cls-3" d="M205,159.2c0,.06-.08.12-.23.17l-6,1.75a1.87,1.87,0,0,1-1,0l-5.64-2.17c-.1,0-.15-.09-.16-.13" transform="translate(-34.52 -6.04)"/><path class="cls-3" d="M198.53,162.31c0,.06-.08.12-.23.17l-6.05,1.78a1.75,1.75,0,0,1-1,0L185.63,162c-.11,0-.17-.09-.17-.14" transform="translate(-34.52 -6.04)"/><path class="cls-3" d="M196.12,167.09q0,.1-.24.18l-6.15,1.83a1.75,1.75,0,0,1-1,0L181.05,166c-.11-.05-.16-.1-.17-.15" transform="translate(-34.52 -6.04)"/><path class="cls-3" d="M186.43,163.29c0,.06-.09.13-.24.17l-6.13,1.8a1.8,1.8,0,0,1-1,0L173.51,163c-.1,0-.16-.09-.16-.14" transform="translate(-34.52 -6.04)"/><path class="cls-3" d="M179.31,166.29c0,.06-.09.13-.25.17l-2.32.69a1.83,1.83,0,0,1-1,0l-6.23-2.5a.27.27,0,0,1-.16-.13" transform="translate(-34.52 -6.04)"/><path class="cls-3" d="M175.43,167.43c0,.06-.09.13-.24.17l-2.34.69a1.74,1.74,0,0,1-1,0l-6.22-2.52c-.09,0-.14-.08-.15-.13" transform="translate(-34.52 -6.04)"/><path class="cls-3" d="M183.77,170.78c0,.06-.09.13-.25.18l-2.35.7a1.69,1.69,0,0,1-1,0l-6.34-2.57c-.1,0-.15-.08-.16-.13" transform="translate(-34.52 -6.04)"/><path class="cls-3" d="M167.27,164.15c0,.06-.1.12-.25.16l-2.33.67a1.71,1.71,0,0,1-1,0l-6.09-2.47c-.09,0-.14-.08-.15-.13" transform="translate(-34.52 -6.04)"/><path class="cls-3" d="M178.9,160.33c0,.06-.09.13-.25.17l-6.1,1.77a1.8,1.8,0,0,1-1,0l-5.46-2.17c-.1,0-.15-.09-.16-.14" transform="translate(-34.52 -6.04)"/><path class="cls-3" d="M190.91,159.37c0,.06-.1.12-.24.16l-6,1.76a1.91,1.91,0,0,1-1,0l-5.53-2.17A.31.31,0,0,1,178,159" transform="translate(-34.52 -6.04)"/><path class="cls-3" d="M197.35,156.32c0,.06-.09.12-.23.16l-6,1.72a1.87,1.87,0,0,1-1,0l-5.53-2.13q-.13,0-.15-.12" transform="translate(-34.52 -6.04)"/><path class="cls-3" d="M208.74,155.52c0,.06-.08.12-.22.16l-5.4,1.58a1.77,1.77,0,0,1-1,0l-5.64-2.13a.31.31,0,0,1-.17-.12" transform="translate(-34.52 -6.04)"/><path class="cls-3" d="M216.09,154.94c0,.06-.08.11-.22.15l-2.79.82a1.83,1.83,0,0,1-1,0L205,153.24a.26.26,0,0,1-.17-.12" transform="translate(-34.52 -6.04)"/><path class="cls-3" d="M207,151.58c0,.06-.08.11-.22.15l-2.78.81a1.83,1.83,0,0,1-1,0l-7-2.6c-.1,0-.15-.07-.16-.11" transform="translate(-34.52 -6.04)"/><path class="cls-3" d="M201.13,152.68c0,.06-.09.11-.23.15l-5.38,1.56a1.73,1.73,0,0,1-1,0L189,152.27c-.11,0-.16-.09-.17-.14" transform="translate(-34.52 -6.04)"/><path class="cls-3" d="M193.65,149.89c0,.06-.09.11-.23.15l-5.37,1.53a1.79,1.79,0,0,1-1,0l-5.44-2.06c-.1,0-.16-.09-.16-.14" transform="translate(-34.52 -6.04)"/><path class="cls-3" d="M186.3,147.15c0,.06-.09.11-.23.15l-5.35,1.5a1.76,1.76,0,0,1-.94,0l-5.35-2q-.13-.06-.15-.12" transform="translate(-34.52 -6.04)"/><path class="cls-3" d="M182.52,150.7c0,.06-.09.11-.23.15l-5.92,1.67a1.76,1.76,0,0,1-.94,0l-5.34-2.05q-.14-.06-.15-.12" transform="translate(-34.52 -6.04)"/><path class="cls-3" d="M176.06,153.65c0,.06-.09.11-.23.15l-6,1.7a1.79,1.79,0,0,1-1,0l-5.34-2.09a.21.21,0,0,1-.15-.12" transform="translate(-34.52 -6.04)"/><path class="cls-3" d="M168.84,150.86c0,.06-.09.11-.24.16l-6,1.66a1.75,1.75,0,0,1-.94,0l-5.25-2c-.08,0-.13-.07-.14-.12" transform="translate(-34.52 -6.04)"/><path class="cls-3" d="M164.23,154.59q0,.09-.24.15l-6.07,1.71a1.79,1.79,0,0,1-.95,0l-5.27-2.1q-.13-.06-.15-.12" transform="translate(-34.52 -6.04)"/><path class="cls-3" d="M171.5,157.44c0,.06-.1.12-.24.16l-6.09,1.73a1.86,1.86,0,0,1-1,0l-5.36-2.14c-.1,0-.15-.08-.15-.13" transform="translate(-34.52 -6.04)"/><path class="cls-3" d="M163.11,159.83c0,.06-.1.12-.25.16l-6.16,1.76a1.75,1.75,0,0,1-1,0l-5.35-2.17q-.13,0-.15-.12" transform="translate(-34.52 -6.04)"/><path class="cls-3" d="M155.87,156.94c0,.06-.1.11-.24.15l-6.15,1.73a1.82,1.82,0,0,1-1,0l-5.25-2.13q-.14-.06-.15-.12" transform="translate(-34.52 -6.04)"/><path class="cls-3" d="M157.1,151.79c0,.06-.1.11-.25.15l-6,1.68a1.79,1.79,0,0,1-.95,0l-5.18-2.07c-.08,0-.13-.07-.14-.11" transform="translate(-34.52 -6.04)"/><path class="cls-3" d="M150.09,149c0,.06-.1.12-.25.16l-6,1.65a1.74,1.74,0,0,1-.94,0l-5.09-2c-.09,0-.13-.08-.14-.13" transform="translate(-34.52 -6.04)"/><path class="cls-3" d="M141.79,151.3c0,.06-.1.12-.25.16l-6.11,1.67a1.75,1.75,0,0,1-.94,0l-25-10.12c-.08,0-.12-.07-.12-.11" transform="translate(-34.52 -6.04)"/><path class="cls-3" d="M129.78,141c0,.06-.08.13-.25.17l-6,1.57a1.73,1.73,0,0,1-.91,0l-4.83-1.92c-.08,0-.13-.07-.13-.11" transform="translate(-34.52 -6.04)"/><path class="cls-3" d="M141.18,140.19c0,.06-.1.11-.25.15L135,141.9a1.64,1.64,0,0,1-.91,0L129.23,140c-.08,0-.13-.08-.13-.12" transform="translate(-34.52 -6.04)"/><path class="cls-3" d="M154.38,140c0,.05-.09.1-.23.14l-5.84,1.56a1.78,1.78,0,0,1-.92,0l-5-1.91c-.09,0-.14-.08-.14-.12" transform="translate(-34.52 -6.04)"/><path class="cls-3" d="M165,139.21s-.09.1-.23.14l-5.31,1.43a1.86,1.86,0,0,1-.91,0l-5.08-1.92c-.08,0-.13-.07-.14-.11" transform="translate(-34.52 -6.04)"/><path class="cls-3" d="M172.48,138.83s-.08.11-.23.15l-2.74.74a1.64,1.64,0,0,1-.91,0l-6.42-2.38c-.08,0-.13-.07-.14-.11" transform="translate(-34.52 -6.04)"/><path class="cls-3" d="M180.85,141.92c0,.05-.09.11-.23.15l-2.76.76a1.9,1.9,0,0,1-.92,0l-6.54-2.44c-.09,0-.14-.07-.15-.11" transform="translate(-34.52 -6.04)"/><path class="cls-3" d="M178.63,143.37c0-.06.06-.13.23-.17l2.75-.76a1.68,1.68,0,0,1,.92,0l6.69,2.47c.11,0,.17.09.16.14" transform="translate(-34.52 -6.04)"/><path class="cls-3" d="M187.18,146.54c0-.06.07-.12.23-.17l2.76-.77a1.72,1.72,0,0,1,.93,0l6.83,2.52c.12.05.18.1.17.15" transform="translate(-34.52 -6.04)"/><path class="cls-3" d="M189.87,153.47c0,.07-.08.13-.23.17l-5.93,1.7a1.73,1.73,0,0,1-1,0l-5.43-2.09c-.11,0-.16-.09-.16-.14" transform="translate(-34.52 -6.04)"/><path class="cls-3" d="M183.42,156.49q0,.09-.24.15l-6,1.73a1.87,1.87,0,0,1-1,0l-5.43-2.13c-.11,0-.16-.09-.16-.14" transform="translate(-34.52 -6.04)"/><path class="cls-3" d="M179.08,144.45c0,.06-.08.11-.23.15l-5.34,1.48a1.72,1.72,0,0,1-.93,0l-5.25-2c-.1,0-.15-.08-.15-.13" transform="translate(-34.52 -6.04)"/><path class="cls-3" d="M175.3,148c0,.05-.09.1-.23.14l-5.9,1.64a1.76,1.76,0,0,1-.94,0l-5.24-2a.28.28,0,0,1-.15-.12" transform="translate(-34.52 -6.04)"/><path class="cls-3" d="M168.21,145.28c0,.05-.1.1-.24.14L162.1,147a1.81,1.81,0,0,1-.93,0L156,145c-.1,0-.15-.08-.14-.13" transform="translate(-34.52 -6.04)"/><path class="cls-3" d="M161.74,148.13c0,.05-.1.11-.24.15l-6,1.64a1.72,1.72,0,0,1-.93,0l-5.16-2c-.09,0-.14-.08-.14-.13" transform="translate(-34.52 -6.04)"/><path class="cls-3" d="M148.77,154.09c0,.06-.1.12-.25.16l-6.13,1.7a1.79,1.79,0,0,1-.95,0l-5.16-2.09c-.08,0-.13-.08-.14-.12" transform="translate(-34.52 -6.04)"/><path class="cls-3" d="M154.77,145.44c0,.05-.1.11-.24.15l-5.94,1.61a1.71,1.71,0,0,1-.93,0l-5.06-2c-.1,0-.14-.09-.14-.13" transform="translate(-34.52 -6.04)"/><path class="cls-3" d="M161.24,142.63c0,.05-.1.11-.24.15l-5.86,1.58a1.68,1.68,0,0,1-.92,0l-5.06-1.94c-.09,0-.13-.07-.14-.11" transform="translate(-34.52 -6.04)"/><path class="cls-3" d="M172,141.8c0,.06-.08.12-.23.15l-5.32,1.46a1.89,1.89,0,0,1-.92,0l-5.17-2c-.09,0-.14-.07-.14-.12" transform="translate(-34.52 -6.04)"/><path class="cls-3" d="M147.92,142.79c0,.05-.1.11-.25.15l-5.92,1.59a1.89,1.89,0,0,1-.92,0l-5-1.95c-.09,0-.13-.07-.14-.11" transform="translate(-34.52 -6.04)"/><path class="cls-3" d="M143.2,146.33q0,.09-.24.15l-6,1.62a1.71,1.71,0,0,1-.93,0l-5-2c-.08,0-.13-.07-.13-.11" transform="translate(-34.52 -6.04)"/><path class="cls-3" d="M136.44,143.67c0,.05-.1.11-.25.15l-6,1.6a1.77,1.77,0,0,1-.92,0l-4.91-2c-.08,0-.12-.07-.13-.11" transform="translate(-34.52 -6.04)"/><path class="cls-3" d="M134.55,137.64c0,.05-.1.11-.24.14l-5.88,1.54a1.7,1.7,0,0,1-.9,0l-4.81-1.88c-.08,0-.12-.07-.13-.11" transform="translate(-34.52 -6.04)"/><path class="cls-3" d="M123.24,138.46c0,.07-.07.14-.25.18l-5.94,1.55a1.85,1.85,0,0,1-.91,0l-4.74-1.89c-.08,0-.12-.07-.13-.11" transform="translate(-34.52 -6.04)"/><path class="cls-3" d="M115.05,140.61c0,.06-.09.12-.25.16l-6,1.56a1.63,1.63,0,0,1-.91,0l-4.73-1.91a.19.19,0,0,1-.12-.11" transform="translate(-34.52 -6.04)"/><path class="cls-3" d="M108.65,138.05c0,.06-.09.12-.26.16l-6,1.54a1.8,1.8,0,0,1-.9,0l-8-3.24a.21.21,0,0,1-.12-.1" transform="translate(-34.52 -6.04)"/><path class="cls-3" d="M99,134.2c0,.06-.1.12-.26.16l-6,1.5a1.72,1.72,0,0,1-.88,0l-7.78-3.15c-.08,0-.11-.07-.12-.11" transform="translate(-34.52 -6.04)"/><path class="cls-3" d="M141,135c0,.06-.09.12-.25.16l-5.8,1.51a1.66,1.66,0,0,1-.89,0l-4.81-1.85c-.09,0-.13-.07-.13-.11" transform="translate(-34.52 -6.04)"/><path class="cls-3" d="M151.41,134.14c0,.05-.09.1-.23.14l-5.27,1.38a1.81,1.81,0,0,1-.9,0l-4.9-1.85c-.1,0-.14-.08-.14-.13" transform="translate(-34.52 -6.04)"/><path class="cls-3" d="M156.25,132.84c0,.06-.09.11-.23.15l-2.72.71a1.77,1.77,0,0,1-.89,0l-6.16-2.29c-.08,0-.13-.06-.14-.1" transform="translate(-34.52 -6.04)"/><path class="cls-3" d="M164.28,135.81c0,.05-.08.11-.23.14l-2.73.73a1.7,1.7,0,0,1-.9,0l-6.28-2.33c-.1,0-.14-.08-.14-.12" transform="translate(-34.52 -6.04)"/><path class="cls-3" d="M158.16,136.64c0,.05-.08.11-.24.15l-5.29,1.41a1.81,1.81,0,0,1-.9,0l-5-1.89c-.09,0-.14-.08-.14-.12" transform="translate(-34.52 -6.04)"/><path class="cls-3" d="M116.81,136a.43.43,0,0,1-.25.14l-5.92,1.52a1.8,1.8,0,0,1-.9,0l-4.67-1.86c-.07,0-.11-.06-.11-.1" transform="translate(-34.52 -6.04)"/><path class="cls-3" d="M121.64,132.67c0,.05-.11.09-.25.13l-5.84,1.49a1.73,1.73,0,0,1-.88,0L110,132.45c-.08,0-.12-.06-.12-.1" transform="translate(-34.52 -6.04)"/><path class="cls-3" d="M134.51,132.5c0,.05-.1.1-.24.14l-5.78,1.49a1.77,1.77,0,0,1-.89,0l-4.73-1.82c-.08,0-.12-.06-.13-.1" transform="translate(-34.52 -6.04)"/><path class="cls-3" d="M144.79,131.67c0,.05-.1.1-.24.13l-5.25,1.36a1.78,1.78,0,0,1-.89,0l-4.82-1.83c-.08,0-.12-.06-.13-.09" transform="translate(-34.52 -6.04)"/><path class="cls-3" d="M147.65,137.48c0,.05-.1.1-.24.14l-5.82,1.54a1.85,1.85,0,0,1-.91,0l-4.89-1.88c-.08,0-.12-.07-.13-.11" transform="translate(-34.52 -6.04)"/><path class="cls-3" d="M148.38,129.94c0,.05-.09.1-.23.14l-2.72.7a1.73,1.73,0,0,1-.88,0l-6-2.25c-.08,0-.12-.06-.13-.1" transform="translate(-34.52 -6.04)"/><path class="cls-3" d="M138.27,129.23c0,.05-.09.1-.23.14l-5.24,1.34a1.7,1.7,0,0,1-.9,0l-4.75-1.79c-.06,0-.1,0-.11-.09" transform="translate(-34.52 -6.04)"/><path class="cls-3" d="M140.66,127.08c0,.06-.09.11-.23.15l-2.71.68a1.82,1.82,0,0,1-.87,0l-5.92-2.21a.17.17,0,0,1-.13-.09" transform="translate(-34.52 -6.04)"/><path class="cls-3" d="M128.1,130.07c0,.05-.1.1-.24.14l-5.76,1.46a1.73,1.73,0,0,1-.88,0l-4.65-1.79c-.08,0-.12-.07-.12-.1" transform="translate(-34.52 -6.04)"/><path class="cls-3" d="M115.34,130.23c0,.05-.1.1-.25.14l-5.82,1.46a1.7,1.7,0,0,1-.87,0l-8.06-3.15c-.07,0-.11-.07-.11-.1" transform="translate(-34.52 -6.04)"/><path class="cls-3" d="M110.49,133.46c0,.06-.08.13-.25.17l-5.91,1.5a1.72,1.72,0,0,1-.88,0l-11.17-4.45c-.07,0-.11-.06-.11-.1" transform="translate(-34.52 -6.04)"/><path class="cls-3" d="M121.8,127.68s-.1.1-.24.14l-5.74,1.44a1.68,1.68,0,0,1-.87,0l-6.64-2.55c-.09,0-.12-.07-.12-.11" transform="translate(-34.52 -6.04)"/><path class="cls-3" d="M128,135.12s-.09.11-.24.15l-5.86,1.51a1.6,1.6,0,0,1-.9,0l-4.73-1.85c-.07,0-.11-.06-.12-.1" transform="translate(-34.52 -6.04)"/><path class="cls-3" d="M131.86,126.85c0,.05-.1.09-.23.13l-5.23,1.32a1.81,1.81,0,0,1-.87,0l-4.66-1.77c-.08,0-.12-.06-.13-.1" transform="translate(-34.52 -6.04)"/><path class="cls-3" d="M125.56,124.46c0,.06-.07.12-.24.16l-5.2,1.3a1.69,1.69,0,0,1-.87,0l-3.08-1.16c-.08,0-.12-.07-.12-.11" transform="translate(-34.52 -6.04)"/><path class="cls-3" d="M133.09,124.27c0,.06-.07.12-.24.16l-2.69.67a1.77,1.77,0,0,1-.86,0l-5.81-2.16c-.08,0-.12-.07-.12-.1" transform="translate(-34.52 -6.04)"/><path class="cls-3" d="M198.1,148.29c0,.06-.09.12-.23.16l-2.77.78a1.76,1.76,0,0,1-.94,0l-6.82-2.54c-.11,0-.16-.08-.16-.13" transform="translate(-34.52 -6.04)"/><path class="cls-3" d="M189.38,145.07c0,.06-.08.11-.22.15l-2.77.78a1.94,1.94,0,0,1-.93,0l-6.68-2.49c-.09,0-.15-.08-.15-.12" transform="translate(-34.52 -6.04)"/></g></svg>